{
  "accessors": [
    {
      "bufferView": 2,
      "componentType": 5126,
      "count": 1473,
      "max": [
        0.9375672340393066,
        1.125190019607544,
        5.268242359161377
      ],
      "min": [
        -0.9375672340393066,
        -1.125190019607544,
        -32.524417877197266
      ],
      "type": "VEC3"
    },
    {
      "bufferView": 2,
      "byteOffset": 17676,
      "componentType": 5126,
      "count": 1473,
      "max": [
        1.0,
        1.0,
        1.0
      ],
      "min": [
        -1.0,
        -1.0,
        -1.0
      ],
      "type": "VEC3"
    },
    {
      "bufferView": 1,
      "componentType": 5126,
      "count": 1473,
      "max": [
        0.9938363432884216,
        1.0
      ],
      "min": [
        0.006163676735013723,
        0.0
      ],
      "type": "VEC2"
    },
    {
      "bufferView": 0,
      "componentType": 5125,
      "count": 4713,
      "type": "SCALAR"
    },
    {
      "bufferView": 2,
      "byteOffset": 35352,
      "componentType": 5126,
      "count": 12640,
      "max": [
        0.41639867424964905,
        0.4163986146450043,
        1.2336164712905884
      ],
      "min": [
        -1.670032024383545,
        -4.663665294647217,
        -1.0780813694000244
      ],
      "type": "VEC3"
    },
    {
      "bufferView": 2,
      "byteOffset": 187032,
      "componentType": 5126,
      "count": 12640,
      "max": [
        1.0,
        1.0,
        0.9923955202102661
      ],
      "min": [
        -1.0,
        -1.0,
        -0.9924332499504089
      ],
      "type": "VEC3"
    },
    {
      "bufferView": 1,
      "byteOffset": 11784,
      "componentType": 5126,
      "count": 12640,
      "max": [
        1.0,
        1.0000001192092896
      ],
      "min": [
        0.0,
        0.009999990463256836
      ],
      "type": "VEC2"
    },
    {
      "bufferView": 0,
      "byteOffset": 18852,
      "componentType": 5125,
      "count": 42912,
      "type": "SCALAR"
    }
  ],
  "asset": {
    "extras": {
      "author": "Kroko.blend (https://sketchfab.com/jaromir.ternavskiy)",
      "license": "CC-BY-4.0 (http://creativecommons.org/licenses/by/4.0/)",
      "source": "https://sketchfab.com/3d-models/test-tube-rack-ea40676ae43340a58b4f1cd44d5a1360",
      "title": "Test Tube Rack"
    },
    "generator": "Sketchfab-16.25.0",
    "version": "2.0"
  },
  "bufferViews": [
    {
      "buffer": 0,
      "byteLength": 190500,
      "name": "floatBufferViews",
      "target": 34963
    },
    {
      "buffer": 0,
      "byteLength": 112904,
      "byteOffset": 190500,
      "byteStride": 8,
      "name": "floatBufferViews",
      "target": 34962
    },
    {
      "buffer": 0,
      "byteLength": 338712,
      "byteOffset": 303404,
      "byteStride": 12,
      "name": "floatBufferViews",
      "target": 34962
    }
  ],
  "buffers": [
    {
      "byteLength": 642116,
      "uri": "scene.bin"
    }
  ],
  "images": [
    {
      "uri": "textures/Material_baseColor.jpeg"
    },
    {
      "uri": "textures/Material.001_baseColor.jpeg"
    }
  ],
  "materials": [
    {
      "doubleSided": true,
      "name": "Material",
      "pbrMetallicRoughness": {
        "baseColorTexture": {
          "index": 0
        },
        "metallicFactor": 0.0,
        "roughnessFactor": 0.8211145618000169
      }
    },
    {
      "alphaMode": "BLEND",
      "doubleSided": true,
      "name": "Material.001",
      "pbrMetallicRoughness": {
        "baseColorFactor": [
          1.0,
          1.0,
          1.0,
          0.650668649656837
        ],
        "baseColorTexture": {
          "index": 1
        },
        "metallicFactor": 0.0
      }
    }
  ],
  "meshes": [
    {
      "name": "Cube_Material_0",
      "primitives": [
        {
          "attributes": {
            "NORMAL": 1,
            "POSITION": 0,
            "TEXCOORD_0": 2
          },
          "indices": 3,
          "material": 0,
          "mode": 4
        }
      ]
    },
    {
      "name": "Cylinder_Material.001_0",
      "primitives": [
        {
          "attributes": {
            "NORMAL": 5,
            "POSITION": 4,
            "TEXCOORD_0": 6
          },
          "indices": 7,
          "material": 1,
          "mode": 4
        }
      ]
    }
  ],
  "nodes": [
    {
      "children": [
        1
      ],
      "matrix": [
        1.0,
        0.0,
        0.0,
        0.0,
        0.0,
        2.220446049250313e-16,
        -1.0,
        0.0,
        0.0,
        1.0,
        2.220446049250313e-16,
        0.0,
        0.0,
        0.0,
        0.0,
        1.0
      ],
      "name": "Sketchfab_model"
    },
    {
      "children": [
        2
      ],
      "matrix": [
        0.009999999776482582,
        0.0,
        0.0,
        0.0,
        0.0,
        0.0,
        0.009999999776482582,
        0.0,
        0.0,
        -0.009999999776482582,
        0.0,
        0.0,
        0.0,
        0.0,
        0.0,
        1.0
      ],
      "name": "01abae0567de4d48ae9baba5309696f5.fbx"
    },
    {
      "children": [
        3,
        5
      ],
      "name": "RootNode"
    },
    {
      "children": [
        4
      ],
      "matrix": [
        121.28132629394483,
        1.0602750683001166e-05,
        -0.0,
        -0.0,
        3.924067121305758e-12,
        -4.4886094161255104e-05,
        -275.5088806152307,
        -0.0,
        1.016815564481753e-06,
        -11.631013870239057,
        1.8949326869204021e-06,
        -0.0,
        0.0,
        0.0,
        0.0,
        1.0
      ],
      "name": "Cube"
    },
    {
      "mesh": 0,
      "name": "Cube_Material_0"
    },
    {
      "children": [
        6
      ],
      "matrix": [
        88.43751525878906,
        0.0,
        0.0,
        0.0,
        0.0,
        -1.4408300069687371e-05,
        -88.4375152587879,
        0.0,
        0.0,
        170.97404479980244,
        -2.78552075371536e-05,
        0.0,
        55.65290451049805,
        179.3522491455078,
        -190.46371459960938,
        1.0
      ],
      "name": "Cylinder"
    },
    {
      "mesh": 1,
      "name": "Cylinder_Material.001_0"
    }
  ],
  "samplers": [
    {
      "magFilter": 9729,
      "minFilter": 9987,
      "wrapS": 10497,
      "wrapT": 10497
    }
  ],
  "scene": 0,
  "scenes": [
    {
      "name": "Sketchfab_Scene",
      "nodes": [
        0
      ]
    }
  ],
  "textures": [
    {
      "sampler": 0,
      "source": 0
    },
    {
      "sampler": 0,
      "source": 1
    }
  ]
}
